<?xml version="1.0" encoding="UTF-8"?>
<svg id="Layer_1" data-name="Layer 1" xmlns="http://www.w3.org/2000/svg" viewBox="0 0 8081.87 1899.76">
  <defs>
    <style>
      .cls-1 {
        fill: #ff9829;
      }

      .cls-2 {
        fill: #333;
      }
    </style>
  </defs>
  <path class="cls-1" d="M0,43.31C0,20.49,18.5,1.99,41.32,1.99h535.66v47.94c0,14.88-3.04,28.24-9.11,40.1-6.07,11.85-14.34,21.63-24.8,29.34-10.46,7.73-20.94,12.81-31.4,15.29-10.48,2.48-19.57,3.72-27.28,3.72-6.07,0-12.4-.54-19-1.65l-144.24-26.17c-13.61-2.47-18.09,17.49-4.73,21.08l194.44,52.21c19.28,4.96,35.13,14.88,47.53,29.75,12.4,14.89,18.6,32.24,18.6,52.08v163.67c0,20.95-4,40.64-12,59.1-7.99,18.47-18.87,34.45-32.64,47.95-13.79,13.5-30.05,24.25-48.77,32.23-18.74,8-38.59,11.99-59.51,11.99H0v-139.24c0-19.72,13.37-36.93,32.48-41.81l267.16-68.22c12.99-3.32,9.08-22.7-4.18-20.71l-135.91,20.35c-10.48,1.65-21.23,2.48-32.24,2.48-17.65,0-34.18-2.48-49.6-7.43-15.43-4.96-28.93-12.67-40.51-23.14-11.58-10.46-20.67-24.25-27.28-41.33C3.31,244.46,0,224.07,0,200.37V43.31Z"/>
  <path class="cls-2" d="M1129.5,1.99c13.77,0,26.72,2.62,38.86,7.85,12.11,5.24,22.73,12.4,31.82,21.49,9.09,9.1,16.24,19.84,21.49,32.24,5.23,12.4,7.85,25.49,7.85,39.26v234.75l-48.76,67.59c-4.73,6.56,3.9,14.42,9.99,9.1l7.37-6.43c2.74-2.74,6.33-4.13,10.74-4.13,5.51,0,10.33,1.94,14.47,5.79,4.13,3.87,6.2,8.82,6.2,14.88v156.23h-100.84c-7.72,0-12.69-2.61-14.89-7.85-2.2-5.23-3.29-8.95-3.29-11.16,0-4.41,1.65-8.54,4.96-12.4l9.58-11.55c6.25-7.53-4.11-17.44-11.36-10.87l-59.39,53.83h-284.35c-15.98,0-31.14-3.02-45.46-9.09-14.34-6.06-26.74-14.47-37.2-25.22-10.48-10.74-18.74-23.27-24.8-37.61-6.07-14.32-9.09-29.47-9.09-45.46V82.17c0-22.04,7.57-40.92,22.73-56.63,15.14-15.7,33.74-23.55,55.8-23.55h397.59ZM1150.16,97.05c4.41-6.05,6.89-12.4,7.44-19.01,0-6.06-3.04-11.29-9.09-15.71-3.31-2.75-7.99-4.13-14.06-4.13-9.36,0-16.53,4.13-21.49,12.4l-142.39,237.32c-7.4,12.33,10.36,24.02,18.77,12.36l160.82-223.22Z"/>
  <path class="cls-2" d="M1880,1.99v578.62h-359.57c-30.32,0-58.7-6.05-85.15-18.19-26.44-12.12-49.47-28.52-69.02-49.18-19.57-20.66-35-44.49-46.29-71.5-11.3-26.99-16.95-55.66-16.95-85.97V2.84c0-.47.38-.85.85-.85h256.48c.34,0,.65.2.79.52l116.01,269.48c4.8,11.2,21.65,4.78,17.77-6.77L1608.42,3.11c-.19-.55.23-1.13.81-1.13h270.77Z"/>
  <path class="cls-2" d="M583.58,1306.67v578.62H58.69c-15.98,0-29.75-5.64-41.33-16.94-11.58-11.29-17.36-25.21-17.36-41.74v-150.44c0-19.28,5.09-37.33,15.29-54.14,10.19-16.81,24.1-29.89,41.75-39.26l233.53-121.23c12.18-6.32,3.62-24.71-9.06-19.47l-240.18,99.37c-3.86,1.65-7.44,2.48-10.75,2.48-1.65,0-4-.27-7.02-.83-3.04-.54-6.47-2.2-10.33-4.96-3.86-2.75-7.02-6.33-9.51-10.74-2.47-4.41-3.71-9.36-3.71-14.88v-205.83h583.58ZM405.5,1544.99c8.58-11.41-7.74-24.81-17.26-14.17l-204.74,228.83c-8.81,9.92-14.34,17.5-16.53,22.73-2.2,5.25-3.29,8.97-3.29,11.16,0,5.51,3.02,11.03,9.09,16.53,5.51,4.42,10.46,6.61,14.87,6.61,5.51,0,10.75-2.2,15.71-6.61,4.96-4.41,9.64-9.36,14.06-14.89l188.1-250.21Z"/>
  <path class="cls-2" d="M583.58,645.32v578.62H58.69c-15.98,0-29.75-5.64-41.33-16.94-11.58-11.29-17.36-25.21-17.36-41.74v-150.44c0-19.28,5.09-37.33,15.29-54.14,10.19-16.81,24.1-29.89,41.75-39.26l233.53-121.23c12.18-6.32,3.62-24.71-9.06-19.47l-240.18,99.37c-3.86,1.65-7.44,2.48-10.75,2.48-1.65,0-4-.27-7.02-.83-3.04-.54-6.47-2.2-10.33-4.96-3.86-2.75-7.02-6.33-9.51-10.74-2.47-4.41-3.71-9.36-3.71-14.88v-205.83h583.58ZM405.5,883.63c8.58-11.41-7.74-24.81-17.26-14.17l-204.74,228.83c-8.81,9.92-14.34,17.5-16.53,22.73-2.2,5.25-3.29,8.97-3.29,11.16,0,5.51,3.02,11.03,9.09,16.53,5.51,4.42,10.46,6.61,14.87,6.61,5.51,0,10.75-2.2,15.71-6.61,4.96-4.41,9.64-9.36,14.06-14.89l188.1-250.21Z"/>
  <path class="cls-2" d="M1880,988.82c0,13.78-2.78,25.77-8.27,35.95-5.52,10.2-12.54,18.47-21.08,24.8-8.56,6.34-17.92,11.03-28.11,14.05-10.2,3.04-20.25,4.54-30.17,4.54-11.56,0-21.49-1.65-29.75-4.96l-88.52-37.43c-12.66-5.35-21.57,12.81-9.59,19.55l190.69,107.15c7.15,3.86,13.08,9.09,17.76,15.71,4.68,6.61,7.04,13.78,7.04,21.49v61.17h-312.46c-11.03,0-21.08-2.75-30.17-8.27-9.09-5.51-16.94-12.95-23.55-22.32l-27.71-37.63c-7.85-10.65-24.24-.36-18.05,11.34l6.91,13.06c2.74,4.96,4.13,9.65,4.13,14.05,0,5.51-2.21,11.86-6.62,19.01-4.42,7.17-12.12,10.75-23.15,10.75h-146.3v-577.8h490.18c12.11,0,23.41,2.21,33.89,6.61,10.46,4.42,19.7,10.62,27.69,18.6,7.98,8,14.17,17.23,18.6,27.7,4.41,10.47,6.62,21.77,6.62,33.89v228.97ZM1779.14,959.05c7.72,3.87,14.32,5.79,19.84,5.79,8.81,0,15.42-4.13,19.84-12.4,1.65-3.3,2.47-6.61,2.47-9.92s-1.52-7.02-4.54-11.16c-3.04-4.13-7.59-7.57-13.64-10.33l-211.05-86.6c-12.47-5.12-20.95,12.85-9.08,19.23l196.16,105.39Z"/>
  <path class="cls-2" d="M1230.34,1392.64c0,16.53-2.89,31.97-8.69,46.29-5.78,14.34-13.64,26.59-23.55,36.79-9.91,10.2-20.96,17.64-33.06,22.32-12.12,4.68-23.97,7.02-35.55,7.02-3.86,0-7.72-.27-11.56-.82l-275.27-33.06,147.74,164.06c9.21,10.23,24.87-2.79,16.5-13.72l-49.34-64.38c-5.52-7.15-8.27-14.05-8.27-20.67,0-2.75,1.1-6.61,3.31-11.57,2.2-4.96,7.98-7.44,17.36-7.44h5.78l254.6,33.89v333.95h-342.22c-32.52,0-63.11-6.2-91.75-18.6-28.66-12.4-53.6-29.34-74.81-50.84-21.21-21.49-38.02-46.56-50.42-75.22-12.4-28.65-18.6-59.23-18.6-91.75v-141.35c0-27.55,5.23-53.58,15.71-78.12,10.46-24.51,24.8-45.87,42.98-64.06,18.19-18.18,39.39-32.51,63.66-42.98,24.23-10.46,50.13-15.71,77.69-15.71h377.77v85.97Z"/>
  <path class="cls-2" d="M1880,1306.67v186.81c0,17.65-5.94,30.17-17.78,37.62-11.87,7.43-25.22,11.16-40.09,11.16-12.14,0-23.97-2.2-35.55-6.61l-250.16-100.06c-12.2-4.88-20.33,12.7-8.7,18.83l96.03,50.65c42.98,23.14,64.89,41.61,65.71,55.38.82,13.78,1.24,21.22,1.24,22.32,0,25.9-22.33,52.63-66.95,80.17l-77.3,47.99c-11.59,7.19-1.89,24.8,10.39,18.85l279.34-135.45c3.84-2.2,7.98-3.3,12.4-3.3,8.27,0,15.56,3.04,21.91,9.09,6.33,6.07,9.51,13.51,9.51,22.32v221.52c0,22.83-18.51,41.33-41.33,41.33h-535.64v-578.62h576.98Z"/>
  <g>
    <path class="cls-2" d="M2064.88,583.77h163.18c11.49,98.83,67.8,137.9,185.02,137.9,85.04,0,159.73-29.88,159.73-105.72,0-80.44-78.14-96.53-203.4-125.26-147.09-33.32-281.54-72.4-281.54-243.62,0-162.03,132.15-245.92,314.87-245.92s304.53,90.78,317.17,256.26h-159.73c-9.19-82.74-73.55-124.11-158.58-124.11-89.63,0-148.24,37.92-148.24,96.53,0,66.65,57.46,86.19,179.27,112.62,168.93,36.77,306.82,76.99,306.82,253.97,0,166.63-134.45,259.71-319.46,259.71-222.94,0-349.35-98.83-355.09-272.35Z"/>
    <path class="cls-2" d="M3408.25,799.82c-58.61,35.62-129.85,56.31-210.3,56.31-242.47,0-394.16-181.57-394.16-427.49S2955.48,0,3197.96,0s393.01,182.72,393.01,428.64c0,112.62-32.18,211.44-89.63,286.14l87.33,78.14-85.04,93.08-95.38-86.19ZM3295.63,697.54l-72.4-66.65,85.04-91.93,74.7,68.95c25.28-49.41,37.92-111.47,37.92-179.27,0-164.33-71.25-291.89-221.79-291.89s-225.23,127.56-225.23,291.89,74.69,290.74,225.23,290.74c36.78,0,68.95-6.9,96.53-21.83Z"/>
    <path class="cls-2" d="M3674.85,573.43V16.09h166.63v557.34c0,85.04,42.52,144.79,153.99,144.79,105.72,0,155.14-62.05,155.14-147.09V16.09h166.63v557.34c0,175.82-108.02,278.1-318.32,278.1s-324.06-99.98-324.06-278.1Z"/>
    <path class="cls-2" d="M4634.4,16.09h172.37l289.59,821.65h-173.52l-55.16-174.67h-296.48l-54.01,174.67h-168.93L4634.4,16.09ZM4610.27,535.51h217.19l-73.55-236.73c-13.79-43.67-33.33-126.41-33.33-126.41h-2.3s-20.68,82.74-34.47,126.41l-73.55,236.73Z"/>
    <path class="cls-2" d="M5165.32,16.09h376.92c158.58,0,264.3,91.93,264.3,228.68,0,96.53-44.82,170.08-150.54,198.8v3.45c75.84,21.83,114.92,65.5,125.26,165.48,11.49,116.06,6.9,204.55,35.63,217.19v8.04h-159.74c-20.68-9.19-22.98-101.13-29.88-189.61-6.9-89.64-57.46-140.2-160.88-140.2h-134.45v329.81h-166.63V16.09ZM5331.95,379.22h176.97c90.78,0,135.6-47.11,135.6-112.62s-42.52-116.06-131-116.06h-181.57v228.68Z"/>
    <path class="cls-2" d="M6145.52,16.09h172.37l289.59,821.65h-173.52l-55.16-174.67h-296.48l-54.01,174.67h-168.93L6145.52,16.09ZM6121.39,535.51h217.19l-73.55-236.73c-13.79-43.67-33.33-126.41-33.33-126.41h-2.3s-20.68,82.74-34.47,126.41l-73.55,236.73Z"/>
    <path class="cls-2" d="M7226.89,727.42h-2.3c-56.31,94.23-133.3,127.56-230.98,127.56-124.11,0-220.64-44.82-288.44-119.51-67.8-75.84-106.87-181.57-106.87-305.67,0-136.75,48.26-256.26,134.45-335.55,66.65-60.91,153.98-94.23,264.3-94.23,206.85,0,325.21,113.77,351.64,274.65h-163.18c-18.38-79.29-79.29-136.75-185.01-136.75-155.14,0-232.13,128.7-232.13,291.89s88.48,290.73,229.83,290.73c127.56,0,211.44-95.38,211.44-186.16v-4.6h-197.66v-128.7h345.9v436.68h-125.26l-5.74-110.32Z"/>
    <path class="cls-2" d="M7473.96,16.09h604.46v140.2h-437.83v183.87h383.82v136.75h-383.82v221.79h441.28v139.05h-607.9V16.09Z"/>
    <path class="cls-2" d="M2064.88,1627.41h163.18c11.49,98.83,67.8,137.9,185.02,137.9,85.04,0,159.73-29.88,159.73-105.72,0-80.44-78.14-96.53-203.4-125.26-147.09-33.32-281.54-72.4-281.54-243.62,0-162.03,132.15-245.92,314.87-245.92s304.53,90.78,317.17,256.26h-159.73c-9.19-82.74-73.55-124.11-158.58-124.11-89.63,0-148.24,37.92-148.24,96.53,0,66.65,57.46,86.19,179.27,112.62,168.93,36.77,306.82,76.99,306.82,253.97,0,166.63-134.45,259.71-319.46,259.71-222.94,0-349.35-98.83-355.09-272.35Z"/>
    <path class="cls-2" d="M2762.42,1059.73h660.77v140.2h-247.07v681.45h-166.63v-681.45h-247.07v-140.2Z"/>
    <path class="cls-2" d="M3500.18,1617.07v-557.34h166.63v557.34c0,85.04,42.52,144.79,153.99,144.79,105.72,0,155.14-62.05,155.14-147.09v-555.04h166.63v557.34c0,175.82-108.02,278.1-318.32,278.1s-324.06-99.98-324.06-278.1Z"/>
    <path class="cls-2" d="M4262.08,1059.73h320.62c219.49,0,360.83,176.97,360.83,419.44,0,133.3-44.82,250.52-131.01,322.91-60.91,50.56-140.2,79.29-243.62,79.29h-306.82v-821.65ZM4557.41,1737.73c156.29,0,217.19-95.38,217.19-258.56s-71.25-276.95-212.6-276.95h-133.3v535.51h128.7Z"/>
    <path class="cls-2" d="M5035.46,1059.73h166.63v821.65h-166.63v-821.65Z"/>
    <path class="cls-2" d="M5294.01,1472.28c0-245.92,153.99-428.64,396.46-428.64s395.31,182.72,395.31,428.64-152.84,427.49-395.31,427.49-396.46-181.57-396.46-427.49ZM5915.71,1472.28c0-164.33-73.55-291.89-224.09-291.89s-227.53,127.56-227.53,291.89,76.99,290.74,227.53,290.74,224.09-127.56,224.09-290.74Z"/>
  </g>
</svg>